<svg xmlns="http://www.w3.org/2000/svg" viewBox="0 0 1200 630" width="1200" height="630">
  <rect width="1200" height="630" fill="#1E1E2E"/>
  <g transform="translate(64, 220)">
    <rect x="0" y="0" width="48" height="56" fill="#CDD6F4" rx="4"/>
    <rect x="60" y="0" width="48" height="56" fill="#CDD6F4" rx="4"/>
    <rect x="120" y="0" width="48" height="56" fill="#CDD6F4" rx="4"/>
    <rect x="180" y="0" width="48" height="56" fill="#F9E2AF" rx="4"/>
    <rect x="240" y="0" width="48" height="56" fill="#CDD6F4" rx="4"/>
    <rect x="300" y="0" width="48" height="56" fill="#CDD6F4" rx="4"/>
    <rect x="360" y="0" width="48" height="56" fill="#CDD6F4" rx="4"/>
    <rect x="420" y="0" width="48" height="56" fill="#CDD6F4" rx="4"/>
    <polygon points="228,66 228,80 208,80 208,90 248,90 248,80 228,80" fill="#89B4FA"/>
  </g>
  <text x="560" y="280" font-family="monospace" font-size="48" font-weight="bold" fill="#CDD6F4">advanced-brainfuck</text>
  <line x1="560" y1="296" x2="900" y2="296" stroke="#89B4FA" stroke-width="2"/>
  <text x="560" y="328" font-family="monospace" font-size="20" fill="#6C7086">High-performance Brainfuck interpreter with JIT acceleration</text>
</svg>