<svg xmlns="http://www.w3.org/2000/svg" viewBox="0 0 512 512" width="512" height="512">
  <rect width="512" height="512" fill="#1E1E2E" rx="16"/>
  <rect x="64" y="256" width="40" height="56" fill="#CDD6F4" rx="4"/>
  <rect x="116" y="256" width="40" height="56" fill="#CDD6F4" rx="4"/>
  <rect x="168" y="256" width="40" height="56" fill="#CDD6F4" rx="4"/>
  <rect x="220" y="256" width="40" height="56" fill="#F9E2AF" rx="4"/>
  <rect x="272" y="256" width="40" height="56" fill="#CDD6F4" rx="4"/>
  <rect x="324" y="256" width="40" height="56" fill="#CDD6F4" rx="4"/>
  <rect x="376" y="256" width="40" height="56" fill="#CDD6F4" rx="4"/>
  <rect x="428" y="256" width="40" height="56" fill="#CDD6F4" rx="4"/>
  <polygon points="240,326 240,340 220,340 220,350 260,350 260,340 240,340" fill="#89B4FA"/>
  <text x="256" y="420" text-anchor="middle" font-family="monospace" font-size="28" fill="#6C7086">+ - &gt; &lt; [ ] . ,</text>
  <text x="256" y="190" text-anchor="middle" font-family="monospace" font-size="32" font-weight="bold" fill="#CDD6F4">advanced</text>
  <text x="256" y="228" text-anchor="middle" font-family="monospace" font-size="32" font-weight="bold" fill="#89B4FA">brainfuck</text>
</svg>