<svg xmlns="http://www.w3.org/2000/svg" viewBox="0 0 512 512" width="512" height="512">
  <!-- Advanced BrainFuck Logo - Balanced Proportions
       Clean geometric design with optimal spacing and thickness
       Palette: #0B1026 bg, #6A7AA0 brackets, #F0F0F0 arrows, #FFB800 dot -->

  <rect width="512" height="512" fill="#0B1026" rx="16"/>

  <!-- Left bracket (refined proportions) -->
  <rect x="75" y="75" width="18" height="362" rx="6" fill="#6A7AA0"/>
  <rect x="75" y="75" width="90" height="18" rx="6" fill="#6A7AA0"/>
  <rect x="75" y="419" width="90" height="18" rx="6" fill="#6A7AA0"/>

  <!-- Right bracket (refined proportions) -->
  <rect x="419" y="75" width="18" height="362" rx="6" fill="#6A7AA0"/>
  <rect x="347" y="75" width="90" height="18" rx="6" fill="#6A7AA0"/>
  <rect x="347" y="419" width="90" height="18" rx="6" fill="#6A7AA0"/>

  <!-- Optimized symbols (balanced spacing) -->
  <polygon points="130,256 195,195 195,225 150,256 195,287 195,317" fill="#F0F0F0"/>
  <circle cx="256" cy="256" r="45" fill="#FFB800"/>
  <polygon points="382,256 317,195 317,225 362,256 317,287 317,317" fill="#F0F0F0"/>
</svg>